<svg width="273" height="273" viewBox="0 0 273 273" fill="none" xmlns="http://www.w3.org/2000/svg">
<circle cx="136.5" cy="136.5" r="136.5" fill="#A2A2A2"/>
<path d="M155.814 220.617C155.721 222.021 155.159 227.825 149.173 227.825C140.849 227.919 140.849 237 149.173 237C156.282 237 165.354 237 172.556 237C180.881 237 180.881 227.732 172.556 227.825C165.635 227.825 165.916 220.242 165.916 220.242V191.127H155.908V220.617H155.814Z" fill="white"/>
<path d="M52.6488 180.173C51.2459 180.08 45.4469 179.518 45.4469 173.526C45.3534 165.194 36.2808 165.194 36.2808 173.526C36.2808 180.641 36.2808 189.722 36.2808 196.931C36.2808 205.263 45.5404 205.263 45.4469 196.931C45.4469 190.003 53.023 190.284 53.023 190.284H106.336V180.173H52.6488Z" fill="white"/>
<path d="M155.814 93.7629V131.491V141.509V179.237H165.822V141.509V131.491V93.7629H155.814Z" fill="white"/>
<path d="M207.725 131.491H170.031H166.758V141.509H170.312H207.725C218.387 141.509 226.992 150.215 226.992 160.794C226.992 171.373 218.387 180.173 207.725 180.173H165.822H155.814H118.121V190.191H155.814H165.822H207.725C223.906 190.191 237 177.084 237 160.888C237 144.598 223.906 131.491 207.725 131.491Z" fill="white"/>
<path d="M136.547 36C120.272 36 107.178 49.1067 107.178 65.3027V82.8095V92.8267V130.555H117.186V92.8267V82.8095V65.3027C117.186 54.6302 125.884 46.0172 136.453 46.0172C147.022 46.0172 155.721 54.7238 155.721 65.3027V81.8733H165.729V65.3027C165.822 49.1067 152.728 36 136.547 36Z" fill="white"/>
<path d="M123.827 227.825C116.905 227.825 117.186 220.242 117.186 220.242V190.191V180.173V142.445H107.178V180.173V190.191V220.523C107.178 221.74 106.71 227.732 100.537 227.825C92.2129 227.919 92.2129 237 100.537 237C107.646 237 116.718 237 123.92 237C132.245 237 132.245 227.732 123.827 227.825Z" fill="white"/>
<path d="M117.186 131.491H107.178H102.688H65.2755C54.6128 131.491 46.0079 122.785 46.0079 112.206C46.0079 101.533 54.7064 92.9204 65.2755 92.9204H106.242V82.8095H65.2755C49.0945 82.8095 36 96.0098 36 112.206C36 128.402 49.0945 141.509 65.2755 141.509H102.969H107.178H117.186H154.879V131.491H117.186Z" fill="white"/>
<path d="M236.813 76.1626C236.813 67.8305 227.553 67.8305 227.647 76.1626C227.647 83.0904 220.071 82.8095 220.071 82.8095H165.822H155.814H118.121V92.8267H155.814H165.822H220.445C221.848 92.9204 227.647 93.4821 227.647 99.4737C227.74 107.806 236.813 107.806 236.813 99.4737C236.813 92.3586 236.813 83.2776 236.813 76.1626Z" fill="white"/>
</svg>
