<svg width="215" height="215" viewBox="0 0 215 215" fill="none" xmlns="http://www.w3.org/2000/svg">
<path d="M128.1 197.2C128 198.7 127.4 204.9 121 204.9C112.1 205 112.1 214.7 121 214.7C128.6 214.7 138.3 214.7 146 214.7C154.9 214.7 154.9 204.8 146 204.9C138.6 204.9 138.9 196.8 138.9 196.8V165.7H128.2V197.2H128.1Z" fill="black"/>
<path d="M17.8 154C16.3 153.9 10.1 153.3 10.1 146.9C10 138 0.300049 138 0.300049 146.9C0.300049 154.5 0.300049 164.2 0.300049 171.9C0.300049 180.8 10.2 180.8 10.1 171.9C10.1 164.5 18.2001 164.8 18.2001 164.8H75.2V154H17.8Z" fill="black"/>
<path d="M128.1 61.7V102V112.7V153H138.8V112.7V102V61.7H128.1Z" fill="black"/>
<path d="M183.6 102H143.3H139.8V112.7H143.6H183.6C195 112.7 204.2 122 204.2 133.3C204.2 144.6 195 154 183.6 154H138.8H128.1H87.8V164.7H128.1H138.8H183.6C200.9 164.7 214.9 150.7 214.9 133.4C214.9 116 200.9 102 183.6 102Z" fill="black"/>
<path d="M107.5 0C90.1001 0 76.1001 14 76.1001 31.3V50V60.7V101H86.8001V60.7V50V31.3C86.8001 19.9 96.1001 10.7 107.4 10.7C118.7 10.7 128 20 128 31.3V49H138.7V31.3C138.8 14 124.8 0 107.5 0Z" fill="black"/>
<path d="M93.9 204.9C86.5 204.9 86.8 196.8 86.8 196.8V164.7V154V113.7H76.0999V154V164.7V197.1C76.0999 198.4 75.6 204.8 69 204.9C60.1 205 60.1 214.7 69 214.7C76.6 214.7 86.3 214.7 94 214.7C102.9 214.7 102.9 204.8 93.9 204.9Z" fill="black"/>
<path d="M86.8 102H76.1H71.3H31.3C19.9 102 10.7 92.7 10.7 81.4C10.7 70 20 60.8 31.3 60.8H75.1V50H31.3C14 50 0 64.1 0 81.4C0 98.7 14 112.7 31.3 112.7H71.6H76.1H86.8H127.1V102H86.8Z" fill="black"/>
<path d="M214.7 42.9C214.7 34 204.8 34 204.9 42.9C204.9 50.3 196.8 50 196.8 50H138.8H128.1H87.8V60.7H128.1H138.8H197.2C198.7 60.8 204.9 61.4 204.9 67.8C205 76.7 214.7 76.7 214.7 67.8C214.7 60.2 214.7 50.5 214.7 42.9Z" fill="black"/>
</svg>
